<svg width="198" height="60" viewBox="0 0 198 60" fill="none" xmlns="http://www.w3.org/2000/svg">
<g clip-path="url(#clip0_69_6616)">
<path d="M156.533 52.4318C156.356 51.712 155.956 51.0639 155.387 50.5773C154.798 50.1106 154.058 49.8684 153.302 49.8954C152.725 49.8797 152.155 50.0138 151.648 50.2841C151.195 50.5386 150.81 50.8935 150.522 51.3204C150.224 51.7672 150.005 52.2606 149.876 52.7795C149.732 53.3112 149.66 53.859 149.66 54.4091C149.661 54.9627 149.728 55.5144 149.862 56.0523C149.986 56.5633 150.202 57.0483 150.501 57.4841C150.788 57.9066 151.174 58.2551 151.627 58.5C152.143 58.7663 152.719 58.8978 153.302 58.8818C154.121 58.9208 154.925 58.6499 155.547 58.125C156.139 57.5683 156.519 56.8297 156.624 56.0318H157.965C157.862 56.5897 157.682 57.1311 157.43 57.6409C157.198 58.1099 156.88 58.5329 156.492 58.8886C156.09 59.2503 155.617 59.5265 155.102 59.7C153.775 60.1261 152.336 60.0754 151.043 59.5568C150.44 59.2883 149.909 58.8843 149.494 58.3773C149.077 57.8513 148.772 57.2484 148.597 56.6045C148.398 55.8892 148.3 55.1505 148.305 54.4091C148.301 53.6904 148.409 52.9754 148.625 52.2886C148.83 51.6377 149.153 51.0281 149.577 50.4886C149.999 49.9677 150.533 49.5441 151.141 49.2477C151.807 48.9316 152.541 48.775 153.281 48.7909C154.367 48.742 155.439 49.0517 156.325 49.6704C157.152 50.3594 157.673 51.3378 157.777 52.3977L156.533 52.4318Z" fill="#A7A7AA"/>
<path d="M160.675 59.7136V44.9454H161.933V59.7136H160.675Z" fill="#A7A7AA"/>
<path d="M169.438 60C168.77 59.9917 168.109 59.867 167.485 59.6319C166.882 59.4048 166.339 59.0484 165.894 58.5887C165.418 58.0849 165.051 57.4909 164.817 56.8432C164.538 56.0591 164.404 55.2326 164.421 54.4023C164.415 53.6639 164.52 52.9287 164.734 52.2205C164.926 51.5732 165.244 50.9688 165.672 50.4409C166.097 49.9307 166.634 49.5206 167.242 49.2409C167.932 48.9356 168.682 48.7865 169.438 48.8046C170.201 48.7864 170.958 48.9355 171.655 49.2409C172.26 49.5205 172.794 49.928 173.219 50.4341C173.652 50.9548 173.969 51.5586 174.15 52.2069C174.357 52.9209 174.46 53.66 174.456 54.4023C174.466 55.1821 174.347 55.9583 174.101 56.7C173.885 57.3483 173.54 57.9484 173.087 58.4659C172.649 58.9564 172.105 59.3453 171.495 59.6046C170.845 59.8753 170.144 60.01 169.438 60ZM173.114 54.4023C173.118 53.8076 173.048 53.2146 172.906 52.6364C172.783 52.1259 172.564 51.6425 172.26 51.2114C171.969 50.8086 171.582 50.4811 171.134 50.2569C170.605 50.0111 170.024 49.8919 169.438 49.9091C168.854 49.8956 168.275 50.0269 167.757 50.2909C167.3 50.5309 166.91 50.8746 166.617 51.2932C166.314 51.7309 166.092 52.218 165.964 52.7319C165.824 53.2781 165.754 53.8392 165.755 54.4023C165.75 55.015 165.832 55.6253 165.998 56.2159C166.136 56.7298 166.372 57.2133 166.693 57.6409C166.993 58.0371 167.386 58.3554 167.84 58.5682C168.338 58.7943 168.882 58.9062 169.431 58.8955C170.016 58.909 170.594 58.7777 171.113 58.5137C171.571 58.271 171.963 57.9223 172.253 57.4978C172.551 57.0608 172.77 56.5763 172.899 56.0659C173.042 55.5224 173.114 54.9635 173.114 54.4023Z" fill="#A7A7AA"/>
<path d="M184.094 49.0909H185.352V59.7137H184.094V58.2409C183.928 58.4319 183.74 58.6296 183.532 58.8341C183.321 59.0461 183.088 59.2358 182.837 59.4C182.539 59.5819 182.219 59.7263 181.885 59.8296C181.479 59.9505 181.057 60.0081 180.634 60C180.013 60.0194 179.395 59.9198 178.813 59.7069C178.355 59.5293 177.95 59.2435 177.632 58.875C177.329 58.5113 177.108 58.0882 176.985 57.6341C176.844 57.1301 176.776 56.609 176.784 56.0864V49.0909H178.035V56.0932C177.984 56.8479 178.216 57.5947 178.688 58.1932C178.969 58.459 179.305 58.6618 179.673 58.7878C180.041 58.9138 180.433 58.9598 180.821 58.9228C181.302 58.9291 181.778 58.8265 182.211 58.6228C182.617 58.4305 182.972 58.148 183.247 57.7978C183.536 57.4131 183.755 56.9816 183.893 56.5228C184.051 55.996 184.128 55.4491 184.122 54.9L184.094 49.0909Z" fill="#A7A7AA"/>
<path d="M196.742 44.9454H198V59.7136H196.742V57.8523H196.7C196.526 58.1989 196.291 58.5128 196.006 58.7795C195.726 59.0503 195.407 59.2799 195.06 59.4613C194.725 59.6362 194.371 59.7734 194.004 59.8704C193.658 59.9639 193.3 60.012 192.941 60.0136C192.172 60.0361 191.407 59.8893 190.703 59.5841C190.11 59.3148 189.59 58.9104 189.188 58.4045C188.778 57.8785 188.482 57.275 188.32 56.6318C188.135 55.9142 188.044 55.1765 188.049 54.4363C188.046 53.7152 188.144 52.9972 188.34 52.3023C188.519 51.6547 188.82 51.0462 189.23 50.5091C189.636 49.99 190.156 49.5681 190.752 49.275C191.42 48.9561 192.156 48.7994 192.899 48.8182C193.663 48.8165 194.416 48.9868 195.102 49.3159C195.793 49.6403 196.37 50.1573 196.763 50.8023L196.742 44.9454ZM196.742 54.3613C196.745 53.7819 196.661 53.2052 196.492 52.65C196.348 52.1405 196.113 51.6603 195.797 51.2318C195.486 50.8355 195.092 50.5079 194.643 50.2704C194.17 50.0258 193.642 49.9016 193.108 49.9091C192.519 49.8947 191.936 50.026 191.412 50.2909C190.944 50.54 190.544 50.8953 190.245 51.3273C189.917 51.7892 189.682 52.3072 189.55 52.8545C189.4 53.4683 189.337 54.0991 189.362 54.7295C189.352 55.3322 189.448 55.932 189.647 56.5023C189.817 56.9857 190.084 57.4309 190.432 57.8113C190.757 58.1592 191.156 58.4336 191.6 58.6159C192.064 58.8045 192.563 58.8996 193.066 58.8954C193.61 58.9041 194.149 58.7849 194.636 58.5477C195.088 58.3203 195.481 57.9937 195.783 57.5932C196.103 57.1598 196.339 56.672 196.478 56.1545C196.65 55.5717 196.739 54.9682 196.742 54.3613Z" fill="#A7A7AA"/>
<path d="M80.9526 25.725C81.0366 27.1161 81.4028 28.4768 82.0297 29.7273C82.5695 30.7706 83.3385 31.6834 84.2813 32.4C85.2279 33.1019 86.3075 33.6118 87.4571 33.9C88.7174 34.2148 90.0135 34.3706 91.314 34.3636C92.7272 34.3929 94.1357 34.1948 95.4836 33.7772C96.5382 33.4457 97.5109 32.9023 98.3398 32.1818C99.0515 31.5326 99.607 30.736 99.9659 29.85C100.289 28.9507 100.44 28.0007 100.411 27.0477C100.471 25.8644 100.137 24.694 99.4586 23.7136C98.8048 22.844 97.9591 22.1308 96.9847 21.6273C95.8854 21.0546 94.7184 20.6172 93.51 20.325C92.1896 19.9977 90.8391 19.6772 89.4585 19.3636C88.0687 19.0568 86.7205 18.6818 85.4071 18.2659C84.1671 17.8687 82.9955 17.2894 81.9324 16.5477C80.9042 15.8165 80.0564 14.8682 79.4515 13.7727C78.7716 12.442 78.4442 10.9648 78.4995 9.47725C78.5031 8.25721 78.7683 7.05157 79.2778 5.93861C79.8026 4.78159 80.5753 3.74907 81.5433 2.91134C82.6666 1.96807 83.9675 1.24999 85.3723 0.797704C87.0848 0.245012 88.879 -0.024571 90.6816 -2.37025e-05C92.4946 -0.0268356 94.2977 0.26647 96.0048 0.865886C97.4144 1.35519 98.7027 2.13123 99.7852 3.14316C100.775 4.09298 101.543 5.24211 102.037 6.51134C102.544 7.81727 102.799 9.20467 102.787 10.6022H99.5351C99.5656 9.40151 99.316 8.2098 98.8054 7.11816C98.3547 6.17161 97.6777 5.3459 96.8318 4.71134C95.9765 4.08318 95.0072 3.62041 93.9756 3.3477C92.9019 3.04889 91.7907 2.8997 90.6747 2.90452C89.1844 2.85673 87.6985 3.08814 86.2966 3.58634C85.2276 3.98896 84.2619 4.61746 83.4682 5.42725C82.7956 6.14039 82.3008 6.99695 82.0228 7.92952C81.7585 8.81495 81.7062 9.74828 81.8699 10.6568C82.0168 11.6905 82.505 12.6485 83.2597 13.3841C84.0471 14.1061 84.9636 14.6794 85.963 15.075C87.1012 15.5414 88.2806 15.9043 89.4863 16.1591C90.772 16.4318 92.0784 16.7318 93.4127 17.0386C94.747 17.3454 96.0395 17.7204 97.2904 18.1432C98.4843 18.5425 99.6074 19.1222 100.619 19.8613C101.612 20.6115 102.414 21.5779 102.961 22.6841C103.588 24.0131 103.888 25.4681 103.837 26.9318C103.837 30.2045 102.678 32.7409 100.362 34.5409C98.0456 36.3409 94.8026 37.25 90.633 37.2682C88.8732 37.2939 87.1192 37.0642 85.4279 36.5863C83.9001 36.158 82.48 35.4219 81.2583 34.425C80.0818 33.4532 79.1496 32.2283 78.5342 30.8454C77.8476 29.2553 77.5136 27.5401 77.5543 25.8136L80.9526 25.725Z" fill="#100F0D"/>
<path d="M109.938 5.30454V0.934082H113.239V5.30454H109.938ZM110.091 36.2795V10.8477H113.093V36.2795H110.091Z" fill="#100F0D"/>
<path d="M140.759 10.8477H143.761V33.825C143.767 35.466 143.592 37.1028 143.239 38.7068C142.916 40.1854 142.277 41.5799 141.363 42.7977C140.387 44.0259 139.114 44.9961 137.659 45.6205C135.74 46.3859 133.677 46.7438 131.606 46.6705C129.943 46.714 128.285 46.4835 126.7 45.9887C125.478 45.5926 124.34 44.9802 123.343 44.1818C122.528 43.5169 121.857 42.6986 121.37 41.775C120.968 41.0226 120.731 40.1956 120.675 39.3477H123.879C124.062 40.196 124.437 40.993 124.977 41.6796C125.449 42.2819 126.045 42.7793 126.728 43.1386C127.444 43.4817 128.211 43.7118 129 43.8205C129.862 43.9532 130.734 44.0193 131.606 44.0182C133.303 44.0919 134.99 43.7349 136.506 42.9818C137.671 42.3422 138.633 41.3982 139.285 40.2546C139.935 39.0835 140.35 37.8013 140.508 36.4773C140.692 35.0438 140.766 33.5989 140.731 32.1546C139.795 33.7015 138.411 34.9404 136.756 35.7136C135.113 36.5081 133.306 36.921 131.474 36.9205C129.699 36.9627 127.94 36.5838 126.346 35.8159C124.951 35.1186 123.731 34.1267 122.774 32.9114C121.792 31.6256 121.071 30.1676 120.647 28.6159C120.179 26.9527 119.945 25.2345 119.952 23.5091C119.939 21.7388 120.159 19.9743 120.605 18.2591C120.995 16.7175 121.705 15.2715 122.69 14.0114C123.658 12.8055 124.901 11.8388 126.318 11.1886C128.006 10.4574 129.839 10.1057 131.683 10.1591C132.545 10.1631 133.403 10.28 134.233 10.5068C135.11 10.7424 135.959 11.0716 136.763 11.4886C137.58 11.9328 138.328 12.4884 138.986 13.1386C139.659 13.7842 140.225 14.5297 140.661 15.3477H140.759V10.8477ZM140.759 23.6659C140.771 22.2129 140.58 20.7652 140.189 19.3636C139.841 18.1374 139.272 16.9825 138.507 15.9546C137.775 14.9923 136.823 14.2122 135.727 13.6773C134.564 13.1033 133.276 12.8155 131.975 12.8386C130.782 12.8355 129.6 13.0674 128.5 13.5205C127.441 13.9609 126.493 14.6216 125.72 15.4568C124.888 16.3617 124.25 17.4213 123.844 18.5727C123.364 19.9386 123.128 21.3758 123.149 22.8205C123.074 24.3289 123.208 25.8402 123.545 27.3136C123.841 28.6202 124.385 29.8601 125.15 30.9682C125.862 32.0014 126.815 32.8524 127.93 33.45C129.181 34.0829 130.575 34.3948 131.982 34.3568C133.261 34.3786 134.526 34.0831 135.658 33.4977C136.744 32.9339 137.692 32.1452 138.437 31.1864C139.213 30.1593 139.797 29.0049 140.161 27.7773C140.568 26.4438 140.77 25.058 140.759 23.6659Z" fill="#100F0D"/>
<path d="M151.314 36.2795V0.934082H154.317V14.3864C155.424 13.2193 156.678 12.1952 158.048 11.3386C159.446 10.5239 161.051 10.1149 162.677 10.1591C164.198 10.1473 165.708 10.4227 167.124 10.9704C168.549 11.5543 169.761 12.5479 170.599 13.8204C171.205 14.6562 171.592 15.6258 171.725 16.6432C171.846 17.6456 171.906 18.6542 171.905 19.6636V36.2795H168.903V19.6841C168.903 17.4114 168.384 15.6932 167.347 14.5295C166.318 13.3841 164.567 12.8114 162.197 12.8114C161.329 12.8022 160.465 12.943 159.647 13.2273C158.9 13.4929 158.198 13.8651 157.562 14.3318C156.383 15.1981 155.487 16.3828 154.984 17.7409C154.697 18.5006 154.513 19.2936 154.435 20.1C154.365 20.8545 154.33 21.6727 154.33 22.5545V36.2795H151.314Z" fill="#100F0D"/>
<path d="M188.243 36.375C187.875 36.4432 187.395 36.5591 186.791 36.7227C186.138 36.8932 185.465 36.9758 184.789 36.9682C183.544 37.0543 182.314 36.6577 181.363 35.8636C180.58 35.1272 180.189 33.8091 180.189 31.9091V13.3022H176.534V10.8477H180.189V3.78406H183.191V10.8477H188.056V13.3022H183.191V30.7295C183.191 31.3568 183.191 31.8954 183.24 32.3522C183.256 32.744 183.358 33.1277 183.538 33.4772C183.709 33.7775 183.986 34.0056 184.317 34.1182C184.792 34.2673 185.291 34.3342 185.79 34.3159C186.202 34.3151 186.614 34.2809 187.02 34.2136C187.437 34.1522 187.847 34.0704 188.243 33.975V36.375Z" fill="#100F0D"/>
<path d="M31.8552 19.275V19.4182C31.8552 19.4182 31.8552 19.4591 31.8209 19.5409V19.4728V19.275H31.8552Z" fill="#005CFF"/>
<path d="M31.8548 19.1454V19.2749H31.8V19.0772V19.009C31.8411 19.1045 31.8548 19.1454 31.8548 19.1454Z" fill="#005CFF"/>
<path d="M62.3423 5.73408C55.4973 0.484079 46.213 1.21362 39.6806 6.89999C37.6674 8.67823 35.9427 10.7475 34.5659 13.0363C33.1865 10.7474 31.4594 8.67817 29.4443 6.89999C22.9119 1.21362 13.6276 0.484079 6.78253 5.73408C4.68431 7.30159 2.98142 9.32132 1.80538 11.6373C0.629346 13.9532 0.0116483 16.5034 0 19.0909V19.4863C0.0116483 22.0738 0.629346 24.624 1.80538 26.94C2.98142 29.2559 4.68431 31.2757 6.78253 32.8432C13.6276 38.0932 22.9119 37.3636 29.4443 31.6773C31.4594 29.8991 33.1865 27.8298 34.5659 25.5409C35.9427 27.8297 37.6674 29.899 39.6806 31.6773C46.213 37.3636 55.4973 38.0932 62.3423 32.8432C64.4427 31.2767 66.148 29.2575 67.3264 26.9415C68.5049 24.6256 69.125 22.0748 69.1388 19.4863V19.0909C69.125 16.5024 68.5049 13.9517 67.3264 11.6357C66.148 9.31973 64.4427 7.30054 62.3423 5.73408ZM31.8557 19.4318C31.8557 19.4318 31.8557 19.4727 31.8209 19.5545C30.7205 22.9253 28.7475 25.9582 26.0947 28.3568C21.3066 32.5159 14.5171 33.0477 9.49972 29.2159C7.96166 28.0672 6.71223 26.5881 5.84731 24.8921C4.98238 23.1961 4.52495 21.3282 4.51011 19.4318V19.1454C4.5225 17.2507 4.97671 15.3839 5.83796 13.688C6.69921 11.9921 7.94464 10.5121 9.47887 9.36135C10.9439 8.23028 12.6507 7.4391 14.4716 7.04709C16.2924 6.65507 18.1801 6.67238 19.9932 7.09771C18.8165 7.35553 17.7137 7.86879 16.7658 8.59979C15.8179 9.33078 15.049 10.2609 14.5157 11.3218C13.9824 12.3827 13.6982 13.5473 13.684 14.7302C13.6698 15.913 13.926 17.0839 14.4337 18.1568C14.5058 17.5781 14.7459 17.0319 15.1255 16.5833C15.505 16.1348 16.008 15.8027 16.5745 15.6267C17.1409 15.4506 17.7471 15.4381 18.3206 15.5905C18.8941 15.7429 19.4109 16.0539 19.8094 16.4864C20.2079 16.9189 20.4713 17.4546 20.5682 18.0298C20.6651 18.605 20.5914 19.1954 20.3559 19.7307C20.1204 20.266 19.7331 20.7236 19.24 21.0489C18.7469 21.3743 18.1689 21.5537 17.5748 21.5659C18.8003 22.29 20.1998 22.682 21.6303 22.7018C23.0607 22.7217 24.4709 22.3686 25.7168 21.6787C26.9627 20.9889 27.9996 19.9869 28.7216 18.7752C29.4436 17.5635 29.8249 16.1854 29.8265 14.7818V14.7204C30.6417 16.0661 31.2991 17.4979 31.7862 18.9886C31.7862 19.0704 31.8209 19.1113 31.8209 19.1113L31.8557 19.4318ZM64.6009 19.4318C64.5887 21.3273 64.1339 23.1948 63.2713 24.8909C62.4088 26.587 61.1614 28.0665 59.6251 29.2159C54.6147 33.0477 47.8113 32.5159 43.0302 28.3568C40.3835 25.9586 38.4114 22.9318 37.3039 19.5682V19.4386V19.1523V19.0227C38.4114 15.6591 40.3835 12.6323 43.0302 10.2341C44.6143 8.80534 46.529 7.77631 48.609 7.23583C50.689 6.69534 52.8719 6.65964 54.9691 7.1318C53.8057 7.40468 52.7186 7.92774 51.7864 8.66319C50.8542 9.39864 50.1002 10.3281 49.5788 11.3844C49.0575 12.4407 48.7818 13.5974 48.7718 14.771C48.7618 15.9446 49.0176 17.1057 49.5208 18.1704C49.5929 17.5917 49.833 17.0456 50.2126 16.597C50.5921 16.1484 51.0951 15.8163 51.6616 15.6403C52.228 15.4643 52.8342 15.4517 53.4077 15.6041C53.9813 15.7566 54.4981 16.0676 54.8965 16.5C55.295 16.9325 55.5584 17.4683 55.6553 18.0435C55.7522 18.6187 55.6785 19.2091 55.443 19.7444C55.2075 20.2796 54.8202 20.7372 54.3271 21.0626C53.834 21.3879 53.256 21.5674 52.6619 21.5795C53.6923 22.1902 54.8488 22.5674 56.0468 22.6834C57.2448 22.7995 58.4541 22.6515 59.5863 22.2503C60.7185 21.849 61.7451 21.2047 62.5911 20.3644C63.437 19.5241 64.0809 18.5089 64.4758 17.3932C64.5654 17.9662 64.6096 18.5452 64.6078 19.125L64.6009 19.4318Z" fill="#005CFF"/>
<path d="M37.324 19.091V19.275H37.2692V19.1319V19.0023L37.324 19.091Z" fill="#005CFF"/>
</g>
<defs>
<clipPath id="clip0_69_6616">
<rect width="198" height="60" fill="white"/>
</clipPath>
</defs>
</svg>
